<svg width="32" height="32" viewBox="0 0 32 32" fill="none" xmlns="http://www.w3.org/2000/svg">
  <path d="M16 0C7.16 0 0 7.16 0 16C0 24.84 7.16 32 16 32C24.84 32 32 24.84 32 16C32 7.16 24.84 0 16 0ZM16 4C18.4 4 20.4 6 20.4 8.4C20.4 10.8 18.4 12.8 16 12.8C13.6 12.8 11.6 10.8 11.6 8.4C11.6 6 13.6 4 16 4ZM16 27.6C12 27.6 8.48 25.6 6.4 22.4C6.4 19.2 12.8 17.44 16 17.44C19.2 17.44 25.6 19.2 25.6 22.4C23.52 25.6 20 27.6 16 27.6Z" fill="#FF424D"/>
  <path d="M16 8C17.1046 8 18 7.10457 18 6C18 4.89543 17.1046 4 16 4C14.8954 4 14 4.89543 14 6C14 7.10457 14.8954 8 16 8Z" fill="white"/>
  <path d="M16 24C18.2091 24 20 22.2091 20 20C20 17.7909 18.2091 16 16 16C13.7909 16 12 17.7909 12 20C12 22.2091 13.7909 24 16 24Z" fill="white"/>
</svg> 